<svg xmlns="http://www.w3.org/2000/svg" width="80" height="30" viewBox="0 0 80 30">
    <defs>
        <linearGradient id="a" x1="37.353%" x2="55.501%" y1="93.649%" y2="30.856%">
            <stop offset="0%" stop-color="#FD9A84"/>
            <stop offset="100%" stop-color="#FFD78C"/>
        </linearGradient>
        <linearGradient id="b" x1="49.946%" x2="49.946%" y1="89.483%" y2="18.139%">
            <stop offset="0%" stop-color="#B3E496"/>
            <stop offset="48.43%" stop-color="#FFB264"/>
            <stop offset="100%" stop-color="#F26CB0"/>
        </linearGradient>
        <linearGradient id="c" x1="94.937%" x2="6.545%" y1="74.869%" y2="23.257%">
            <stop offset="0%" stop-color="#EB60A6"/>
            <stop offset="48.43%" stop-color="#C181CF"/>
            <stop offset="100%" stop-color="#9CA6DB"/>
        </linearGradient>
    </defs>
    <g fill="none" fill-rule="evenodd">
        <text fill="#434F57" font-family="SourceSansPro-Bold, Source Sans Pro" font-size="18" font-weight="bold" letter-spacing=".75" transform="translate(-1)">
            <tspan x="47" y="20">EDD</tspan>
        </text>
        <g fill-rule="nonzero">
            <path fill="url(#a)" d="M.675 21.375H20.4v-21H.675z" opacity=".75" transform="matrix(-1 0 0 1 32 0)"/>
            <path fill="url(#b)" d="M.675 21.375L12.15 29.85v-21L.675.375z" opacity=".8" transform="matrix(-1 0 0 1 32 0)"/>
            <path fill="url(#c)" d="M12.15 8.85L.675.375H20.4L32.1 9.15z" opacity=".8" transform="matrix(-1 0 0 1 32 0)"/>
            <path fill="#EF9D54" d="M19.85 21.375V8.85L11.6 9l.15 1.275h6.75v11.1z" opacity=".3"/>
        </g>
    </g>
</svg>
